<?xml version="1.0" standalone="no"?>
<!DOCTYPE svg PUBLIC "-//W3C//DTD SVG 1.1//EN" "http://www.w3.org/Graphics/SVG/1.1/DTD/svg11.dtd" >
<!--
2013-9-30: Created.
-->
<svg>
<metadata>
Created by iconfont
</metadata>
<defs>

<font id="iconfont" horiz-adv-x="1024" >
  <font-face
    font-family="iconfont"
    font-weight="500"
    font-stretch="normal"
    units-per-em="1024"
    ascent="896"
    descent="-128"
  />
    <missing-glyph />
    
    <glyph glyph-name="x" unicode="x" horiz-adv-x="1001"
d="M281 543q-27 -1 -53 -1h-83q-18 0 -36.5 -6t-32.5 -18.5t-23 -32t-9 -45.5v-76h912v41q0 16 -0.5 30t-0.5 18q0 13 -5 29t-17 29.5t-31.5 22.5t-49.5 9h-133v-97h-438v97zM955 310v-52q0 -23 0.5 -52t0.5 -58t-10.5 -47.5t-26 -30t-33 -16t-31.5 -4.5q-14 -1 -29.5 -0.5
t-29.5 0.5h-32l-45 128h-439l-44 -128h-29h-34q-20 0 -45 1q-25 0 -41 9.5t-25.5 23t-13.5 29.5t-4 30v167h911zM163 247q-12 0 -21 -8.5t-9 -21.5t9 -21.5t21 -8.5q13 0 22 8.5t9 21.5t-9 21.5t-22 8.5zM316 123q-8 -26 -14 -48q-5 -19 -10.5 -37t-7.5 -25t-3 -15t1 -14.5
t9.5 -10.5t21.5 -4h37h67h81h80h64h36q23 0 34 12t2 38q-5 13 -9.5 30.5t-9.5 34.5q-5 19 -11 39h-368zM336 498v228q0 11 2.5 23t10 21.5t20.5 15.5t34 6h188q31 0 51.5 -14.5t20.5 -52.5v-227h-327z" />
    

    
    <glyph glyph-name="jiaoyu" unicode="&#58905;" d="M678.265583 728.951539c-17.740781 0-32.083019-14.372336-32.083019-32.050973l0-789.330306c0-17.682731 14.341215-31.992645 32.083019-31.992645 17.71008 0 32.052319 14.309914 32.052319 31.992645L710.317902 696.900565C710.317902 714.579203 695.975663 728.951539 678.265583 728.951539zM765.493818 710.671197c-7.756987 0-14.075144-6.313799-14.075144-14.013155l0-788.723485c0-7.819083 6.318158-14.078647 14.075144-14.078647 7.695586 0 14.00965 6.260587 14.00965 14.078647L779.503468 696.658042C779.503468 704.357398 773.190427 710.671197 765.493818 710.671197zM840.27301 710.671197c-7.694562 0-13.983043-6.313799-13.983043-14.013155l0-788.723485c0-7.819083 6.287457-14.078647 13.983043-14.078647 7.75801 0 14.044444 6.260587 14.044444 14.078647L854.317454 696.658042C854.316431 704.357398 848.029997 710.671197 840.27301 710.671197zM925.42487 728.951539c-17.71008 0-32.081996-14.372336-32.081996-32.050973l0-789.330306c0-17.682731 14.371915-31.992645 32.081996-31.992645 17.746921 0 32.083019 14.309914 32.083019 31.992645L957.507889 696.900565C957.507889 714.579203 943.171791 728.951539 925.42487 728.951539zM529.152355 728.047959l-119.67045 0.119727c-31.604092 0-57.254338-25.617447-57.279922-57.30924l-0.393989-735.509517c0-31.505551 25.590892-57.246819 57.253315-57.30924l119.612119-0.052189c31.694147 0 57.368953 25.669636 57.368953 57.245795l0.362266 735.448118C586.525402 702.311809 560.845478 728.047959 529.152355 728.047959zM517.728709 452.936181l-97.124021 0.11461c-11.033751 0-20.08425 9.023514-20.08425 20.030196 0.062424 11.122315 9.0505 20.083407 20.145651 20.083407l97.120951-0.062422c11.036821 0 20.05662-9.022491 20.05662-20.082384C537.812959 462.011884 528.82386 452.936181 517.728709 452.936181zM517.84844 538.505046l-97.120951 0c-11.036821 0.118704-20.088344 9.079796-20.088344 20.082384 0 11.187807 9.0505 20.087501 20.088344 20.087501L517.84844 578.67493c11.033751 0 20.05662-9.079796 20.05662-20.087501C537.843659 547.523443 528.882191 538.505046 517.84844 538.505046zM238.721773 728.047959 119.165938 728.167686c-31.662423 0-57.33723-25.617447-57.399654-57.30924L61.46542-64.651071c-0.089031-31.505551 25.561215-57.246819 57.191914-57.30924l119.550718-0.052189c31.693123 0 57.404771 25.669636 57.462078 57.245795l0.300865 735.448118C296.032395 702.311809 270.413873 728.047959 238.721773 728.047959zM227.412741 452.936181l-97.151652 0.11461c-11.033751 0-20.083227 9.023514-20.083227 20.030196 0.057308 11.122315 9.049477 20.083407 20.113928 20.083407l97.151652-0.062422c11.037844 0 20.02592-9.022491 20.02592-20.082384C247.470385 462.011884 238.451609 452.936181 227.412741 452.936181zM227.412741 538.505046l-97.058527 0c-11.037844 0.118704-20.05662 9.079796-20.05662 20.082384 0 11.187807 9.018776 20.087501 20.05662 20.087501l97.058527 0c11.068544 0 20.05662-9.079796 20.05662-20.087501C247.470385 547.523443 238.451609 538.505046 227.412741 538.505046z"  horiz-adv-x="1024" />

    
    <glyph glyph-name="jiaoyu1" unicode="&#58930;" d="M310.651202 464.595732l-107.436918 0 0-295.313889 107.436918 0L310.651202 464.595732zM310.651202 540.052285c0 20.418029-14.799054 36.96489-34.92851 36.96489l-37.579897 0c-20.12741 0-34.92851-16.546861-34.92851-36.96489l0-38.116109 107.436918 1.157359L310.651202 540.052285zM238.142795 61.475512l37.579897 0c20.129456 0 34.92851 16.556071 34.92851 36.972053l0 33.878598-107.436918 0 0-33.878598C203.214285 78.031583 218.014362 61.475512 238.142795 61.475512zM494.383784 615.900763c0 20.407796-16.313547 36.96489-36.443004 36.96489l-75.163887 0c-20.12741 0-33.404808-16.557094-33.404808-36.96489l0-38.497802 145.011698-1.158383L494.383784 615.900763zM494.383784 539.669568 349.372086 539.669568l0-368.846626 145.011698-0.381693L494.383784 539.669568zM382.776893 61.475512l75.163887 0c20.129456 0 36.443004 16.556071 36.443004 36.972053l0 33.495882L349.372086 131.943446l0-33.495882C349.372086 78.031583 362.649484 61.475512 382.776893 61.475512zM566.512544 60.324292l110.090351 0c20.128433 0 36.443004 16.549931 36.443004 36.966936L713.045899 539.669568c0 20.418029-16.314571 36.96489-36.443004 36.96489L566.512544 576.634458c-20.125363 0-36.443004-16.546861-36.443004-36.96489l0-442.378339C530.068518 76.875247 546.387181 60.324292 566.512544 60.324292zM822.375933 429.944538c0 20.411889-14.038738 36.957727-34.166147 36.957727l-5.693676 0c-20.125363 0-32.648584-18.09103-32.648584-38.498826l0-72.76628 72.509431 0L822.376956 429.944538zM822.375933 316.748453l-72.509431-0.382717 0-108.576881 72.509431 1.540076L822.375933 316.748453zM782.51611 60.324292l5.693676 0c20.12741 0 34.166147 16.549931 34.166147 36.966936l0 73.15002-72.509431-1.539053 0-73.151044C749.867526 75.333124 762.390747 60.324292 782.51611 60.324292zM1020.537132-13.597301c0 0 3.417843 31.185256-10.249435 38.122249L858.820983 173.522424l0-121.282251c0 0 7.973602-31.181163-34.165124-31.181163L200.558805 21.05901c0 0-34.165124 2.300392-34.165124 40.416502L166.393681 172.363018 12.647041 24.524948c0 0-11.389398 2.306532-10.249435-34.657334 0-43.88858 11.387351-42.730197 11.387351-42.730197l994.158345 0.173962C1027.303232-53.836771 1020.537132-13.597301 1020.537132-13.597301z"  horiz-adv-x="1024" />

    
    <glyph glyph-name="jiaoyu2" unicode="&#59085;" d="M266.016-116.672c0-17.6-14.4-32-32-32l-137.536 0c-17.6 0-32 14.4-32 32l0 670.72c0 17.6 14.4 32 32 32l137.536 0c17.6 0 32-14.4 32-32L266.016-116.672zM231.552 516.576c0 17.6-14.4 32-32 32l-68.256 0c-17.6 0-32-14.4-32-32l0-3.712c0-17.6 14.4-32 32-32l68.256 0c17.6 0 32 14.4 32 32L231.552 516.576zM328.896 714.944c0 17.6 14.4 32 32 32l135.968 0c17.6 0 32-14.4 32-32l0-831.584c0-17.6-14.4-32-32-32l-135.968 0c-17.6 0-32 14.4-32 32L328.896 714.944zM499.328 680.48c0 17.6-14.4 32-32 32l-72.512 0c-17.6 0-32-14.4-32-32l0-5.856c0-17.6 14.4-32 32-32l72.512 0c17.6 0 32 14.4 32 32L499.328 680.48zM952.704-57.888c5.44-16.736-3.776-34.912-20.512-40.352l-130.784-42.624c-16.736-5.44-34.88 3.776-40.352 20.544L553.28 517.408c-5.44 16.736 3.776 34.912 20.512 40.352l130.816 42.624c16.736 5.44 34.88-3.776 40.32-20.544L952.704-57.888zM723.712 533.536c-5.44 16.736-23.616 25.984-40.352 20.544l-64.896-21.12c-16.736-5.44-25.952-23.584-20.512-40.352l1.152-3.488c5.44-16.736 23.616-25.984 40.352-20.544l64.896 21.12c16.736 5.44 25.952 23.584 20.512 40.352L723.712 533.536zM713.792 563.968"  horiz-adv-x="1024" />

    
    <glyph glyph-name="gongzuojingyan" unicode="&#59102;" d="M511.52 748.32c-247.584 0-448.256-200.768-448.256-448.352s200.704-448.256 448.256-448.256c247.68 0 448.32 200.672 448.32 448.256S759.104 748.32 511.52 748.32zM672.032 182.624 496.832 182.624c-24.608 0-44.576 19.968-44.576 44.608l0 264.576c0 24.672 20 44.608 44.576 44.608 24.608 0 44.64-19.936 44.64-44.608l0-219.968 130.592 0c24.576 0 44.608-19.872 44.608-44.608C716.64 202.592 696.608 182.624 672.032 182.624z"  horiz-adv-x="1024" />

    
    <glyph glyph-name="gongzuojingyan1" unicode="&#58938;" d="M956.455139 301.194198c0-246.125607-199.523219-445.649849-445.649849-445.649849-246.122537 0-445.649849 199.524243-445.649849 445.649849 0 246.12663 199.527312 445.649849 445.649849 445.649849C756.93192 746.844048 956.455139 547.320828 956.455139 301.194198zM508.588809 686.980635c-213.062584 0-385.78746-172.721807-385.78746-385.786437 0-213.062584 172.724877-385.786437 385.78746-385.786437 213.0677 0 385.785413 172.723853 385.785413 385.786437C894.374222 514.258829 721.656509 686.980635 508.588809 686.980635zM510.80529 485.957249l-296.359708-119.726825L508.588809 224.332646l239.45365 103.467513 0-72.057129c0 0-49.8872-54.321186 9.976212-80.927147 12.19474 0 60.971653 18.845207 25.497721 80.927147 0 23.279193-5.542226 83.143629-5.542226 83.143629l13.301957 9.024537L510.80529 485.957249zM355.54825 249.607286 510.452249 157.808534 665.948743 259.806579 685.166433 237.366498 510.452249 121.092307 337.810261 225.127755Z"  horiz-adv-x="1024" />

    
    <glyph glyph-name="weibiaoti2" unicode="&#58882;" d="M853.783088 682.928551c0.449713 0 0.898198 0 1.345454 0 0-258.59261 0-517.185221 0-775.776602-0.446027 0-0.895741 0-1.345454 0C853.783088 165.743331 853.783088 424.335941 853.783088 682.928551zM199.01381 810.655774c0 0.448485 0 0.895741 0 1.344225 4.479932 0 8.961094 0 13.443483 0 0-0.448485 0-0.895741 0-1.344225C207.974903 810.655774 203.494971 810.655774 199.01381 810.655774zM654.798399 812c0-0.448485 0-0.895741 0-1.344225-4.479932 0-8.963551 0-13.443483 0 0 0.448485 0 0.895741 0 1.344225C645.834848 812 650.318466 812 654.798399 812zM420.856475 810.655774c0 0.448485 0 0.895741 0 1.344225 4.033905 0 8.06781 0 12.099258 0 0-0.448485 0-0.895741 0-1.344225C428.924286 810.655774 424.89038 810.655774 420.856475 810.655774zM810.72241 723.207395c-22.397205 0.258032-44.801782-0.158506-67.194071 0.20274-5.843817 0.093383-6.797308-1.875035-6.871032-7.199101-0.205197-15.386098 0.743379-30.74885-0.985438-46.186555-2.584009-23.041057-12.041508-41.929022-29.30387-57.355668-15.070316-13.468058-32.630029-21.057894-52.507118-22.351742-26.266461-1.714072-49.403358 6.920181-68.09227 25.40881-17.343458 17.155463-26.121471 38.486134-26.40162 63.037294-0.152362 13.213712-0.160963 26.432339 0.055293 39.644822 0.060208 3.786931-1.00264 5.0218-4.866981 4.940704-11.192459-0.234687-22.40212-0.291208-33.59335 0.017202-4.575773 0.126559-6.250526-1.008783-6.103079-5.876993 0.348958-11.637257-0.239601-23.305233 0.187995-34.936346 0.803586-21.860252-5.249114-41.384697-18.785981-58.551218-16.51161-20.939936-38.406266-32.027953-64.745222-33.692876-18.505832-1.170975-35.95496 3.301585-51.649468 13.611819-25.343688 16.650456-39.524407 39.945859-40.912866 70.361725-0.662283 14.528448-0.242059 29.114646-0.029489 43.671354 0.05775 3.983527-0.837991 5.528035-5.168019 5.413764-11.414858-0.29858-22.849376-0.307181-34.263005 0.003686-4.377948 0.117958-5.197508-1.481843-5.10904-5.432195 0.249431-10.970059-0.191681-21.95855 0.149904-32.922466 0.575043-18.537779-3.414628-35.852975-12.861068-51.838691-9.471015-16.022578-22.759679-27.751989-39.84879-35.168575-15.636758-6.78625-31.628618-9.298993-48.777937-6.673207-24.79199 3.794304-43.995738 16.05944-58.871915 35.710443-12.498594 16.509153-16.66643 35.706757-17.133345 55.921746-0.244516 10.521575 0.004915 21.055437-0.055293 31.581926-0.060208 10.306548 1.013698 8.634253-8.365162 8.696918-12.542828 0.082325-25.094257 0.274006-37.629712-0.052835-11.997274-0.314554-23.957686 0.657368-36.017625-1.072677-16.632026-2.384956-35.766965-21.984353-34.947405-40.876004 0-257.217667 0-514.446392 0-771.691091 0.766725-16.345733 8.303726-28.424102 22.489359-36.569322 4.428326-2.543461 9.612318-3.222946 13.810872-6.165744 0.898198 0 1.793939 0 2.68968 0 0.787613 1.84063 2.038455 1.921726 3.311415 1.694412 1.131656-0.070037 2.305089-0.436197 3.343362-0.436197 9.365344 0.002457 18.734375 0.002457 28.09849 0.00983 96.986974 0.078638 193.976405 0.078638 290.962149 0.078638 32.530502 0 65.059776-0.004915 97.591506-0.004915 45.6324 0 91.263571 0.004915 136.895971 0.004915 69.191979 0 138.383957 0.01966 207.578394-0.090926 1.035815 0 2.204333 0.364931 3.333532 0.438655 1.272959 0.228543 2.526259 0.146218 3.313872-1.694412 0.898198 0 1.793939 0 2.688451 0 0.246974 1.535907 1.433922 1.163603 2.489397 1.382316 20.004877 4.172751 35.091166 21.411767 35.155059 41.471936 0 257.228725 0 514.473424 0 771.731639C853.803976 702.312922 834.479813 722.938304 810.72241 723.207395zM697.809928 14.660497c-90.526336 0.129016-181.052672 0.052835-271.577779 0.052835-90.748735 0-181.501157-0.136389-272.249892 0.117958-17.617463 0.050378-32.736928 12.30937-35.720273 31.003197-3.671431 23.038599 14.0345 42.974667 37.742755 42.945178 181.275071-0.216256 362.551371-0.072495 543.8289-0.194139 18.260087-0.00983 32.833997-12.574775 35.701842-31.049888C739.30521 33.244967 720.586808 14.628551 697.809928 14.660497zM692.302781 191.959414c-88.485423 0.5689-176.973304 0.228543-265.461185 0.228543-89.158765 0-178.318758-0.012287-267.478752 0.007372-20.748255 0.007372-38.516852 17.952905-41.190558 37.493324-2.725313 19.913951 5.751663 33.809605 21.18691 44.586755 7.16224 5.000912 15.810008 6.493813 24.166569 6.503643 175.629079 0.191681 351.260615 0.242059 526.890922 0.028261 22.812514-0.025803 41.646415-15.678535 45.223234-38.169123C740.078078 214.724007 716.090903 191.805823 692.302781 191.959414zM714.513219 389.795244c-7.183128-4.992311-15.810008-6.529446-24.154282-6.539276-175.631536-0.199053-351.261843-0.244516-526.890922-0.035633-23.071775 0.025803-41.841782 15.805093-45.267469 38.107686-3.648085 23.768462 12.230732 43.448955 31.016713 49.276799 3.329846 1.037044 6.721127 1.274188 10.203335 1.271731 89.159993-0.040548 178.318758-0.033176 267.478752-0.033176 89.832106 0 179.665441 0.271548 269.492632-0.208883 19.859887-0.103213 36.023768-17.166521 39.152103-36.56195C738.771943 415.04432 730.26302 400.740729 714.513219 389.795244zM199.01381 810.655774c4.479932 0 8.961094 0 13.443483 0 13.748207-1.793939 23.985946-8.545784 31.053574-20.688048 4.672842-8.028491 6.697782-16.33836 6.647404-25.521853-0.152362-28.419187-0.233458-56.842061-0.002457-85.260019 0.212569-26.057577-22.533593-48.09968-50.075471-44.428249-18.894109 2.516429-33.847696 15.436476-37.306557 36.22405-3.269638 19.630115-0.801129 39.46297-1.341768 59.197527-0.346501 12.745567-0.60699 25.536598 0.055293 38.257591C162.611594 789.970184 176.869722 807.123189 199.01381 810.655774zM641.354915 810.655774c4.479932 0 8.963551 0 13.443483 0 17.903756-2.317376 33.73711-17.495819 36.445221-35.349198 2.281743-15.06663 0.753209-30.095169 1.113225-45.129851 0.388277-16.326073 0.180623-32.670577 0.060208-49.005251-0.127787-17.552341-7.090974-32.244209-22.273103-40.86126-26.518349-15.048199-57.232795-0.583645-65.160531 27.315792-1.287704 4.522938-1.265587 9.015157-1.269273 13.570042-0.015973 28.868901-0.653682 57.755004 0.205197 86.598101 0.642623 21.502693 12.177896 36.054486 33.425014 42.849337C638.558337 811.032993 640.013147 810.670519 641.354915 810.655774zM420.856475 810.655774c4.033905 0 8.06781 0 12.099258 0 17.709618-1.92787 30.924558-14.481756 36.329721-30.639494 1.502731-4.483619 1.307364-9.016386 1.309821-13.576186 0.013516-30.001785-0.207655-60.007257 0.086011-90.007814 0.180623-18.776151-15.03714-36.149098-33.222274-40.616743-15.660104-3.847139-29.490636 0.351415-40.842829 10.639532-8.01006 7.25808-13.503691 16.842138-13.454542 28.631757 0.136389 32.241752-0.312096 64.488418 0.184309 96.725255C383.6347 790.685302 400.935152 808.928187 420.856475 810.655774z"  horiz-adv-x="1790" />

    
    <glyph glyph-name="tel" unicode="&#58940;" d="M227.008-62.016q-38.016 0-64.992 27.008l-24 24q-36.992 38.016-42.016 101.504t20 138.016 79.008 158.016 131.008 161.504q107.008 108 223.008 171.008t208.992 63.008q76.992 0 120.992-44.992l23.008-24q12.992-12.992 20.512-30.016t7.488-36q0-38.016-28-66.016l-92.992-95.008q-27.008-26.016-66.016-26.016t-64.992 26.016l-24 24q-4 4-8.512 6.496t-9.504 3.488-11.008 0.992q-63.008 0-168-106.016-31.008-31.008-52.992-59.488t-33.504-50.016-16-39.488-2.016-30.016 10.496-20l24-23.008q16.992-18.016 23.488-42.496t0-48.512-23.488-42.016l-94.016-94.016q-27.008-28-66.016-28zM758.016 728.992q-80.992 0-188.512-59.488t-206.496-159.488q-66.016-67.008-116-140.992t-75.008-139.008-24.992-119.488 28.992-83.488l23.008-24q11.008-11.008 28-11.008t28.992 11.008l92.992 95.008q12 12 12 28.512t-12 28.512l-23.008 24q-10.016 10.016-16.992 22.496t-8.992 37.504 7.008 53.504 37.504 71.008 75.488 89.504q120 122.016 204.992 122.016 40 0 66.016-27.008l24-24q4.992-6.016 12.512-8.512t15.488-2.496 15.488 2.496 12.512 8.512l94.016 95.008q12 12 12 28.512t-12 28.512l-23.008 24q-28.992 28.992-84 28.992z"  horiz-adv-x="1024" />

    
    <glyph glyph-name="liaotian" unicode="&#59145;" d="M876.806037 147.962819C926.834539 220.961448 953.268415 306.295766 953.268415 394.900689 953.268415 639.001054 751.377976 837.581814 503.209271 837.581814 255.040568 837.581814 53.134945 639.001054 53.134945 394.900689 53.134945 150.800328 255.040568-47.780436 503.209271-47.780436 582.267969-47.780436 660.005734-27.335443 728.117378 11.374141 872.494019-43.374829 891.351501-34.83244 902.632588-29.709987L907.005333-27.753602 910.679659-24.677148C918.741914-17.896997 927.092652-10.892833 923.70681 13.853226 920.35133 38.37527 905.441471 81.027496 876.806037 147.962819L876.806037 147.962819ZM806.030476 149.760447 814.108835 131.19434C828.359242 98.488483 843.172166 61.46385 853.000574 34.0604 822.937214 43.174391 781.467271 57.636897 744.341201 72.007187L727.465719 78.539138 712.152776 68.994807C649.697857 30.187338 577.445781 9.669329 503.209271 9.669329 287.249939 9.669329 111.557389 182.481673 111.557389 394.900689 111.557389 607.319705 287.249939 780.132049 503.209271 780.132049 719.168605 780.132049 894.861154 607.319705 894.861154 394.900689 894.861154 311.752806 868.360392 232.600944 818.233949 165.975054L806.030476 149.760447 806.030476 149.760447ZM386.632991 394.900689C386.632991 368.078774 364.526314 346.334501 337.257364 346.334501 309.973231 346.334501 287.866554 368.078774 287.866554 394.900689 287.866554 421.722608 309.973231 443.481815 337.257364 443.481815 364.526314 443.481815 386.632991 421.722608 386.632991 394.900689M337.257364 345.856605C309.760667 345.856605 287.380693 367.85476 287.380693 394.900689 287.380693 421.946622 309.760667 443.95971 337.257364 443.95971 364.754061 443.95971 387.118852 421.946622 387.118852 394.900689 387.118852 367.85476 364.754061 345.856605 337.257364 345.856605L337.257364 345.856605ZM337.257364 443.003918C310.292077 443.003918 288.352415 421.423923 288.352415 394.900689 288.352415 368.377456 310.292077 346.812397 337.257364 346.812397 364.207468 346.812397 386.14713 368.377456 386.14713 394.900689 386.14713 421.423923 364.207468 443.003918 337.257364 443.003918L337.257364 443.003918ZM550.899568 394.900689C550.899568 368.078774 528.792893 346.334501 501.523941 346.334501 474.254991 346.334501 452.133131 368.078774 452.133131 394.900689 452.133131 421.722608 474.254991 443.481815 501.523941 443.481815 528.792893 443.481815 550.899568 421.722608 550.899568 394.900689M501.523941 345.856605C474.027244 345.856605 451.662453 367.85476 451.662453 394.900689 451.662453 421.946622 474.027244 443.95971 501.523941 443.95971 529.020639 443.95971 551.385428 421.946622 551.385428 394.900689 551.385428 367.85476 529.020639 345.856605 501.523941 345.856605L501.523941 345.856605ZM501.523941 443.003918C474.558654 443.003918 452.618992 421.423923 452.618992 394.900689 452.618992 368.377456 474.558654 346.812397 501.523941 346.812397 528.48923 346.812397 550.428891 368.377456 550.428891 394.900689 550.428891 421.423923 528.48923 443.003918 501.523941 443.003918L501.523941 443.003918ZM717.109588 394.900689C717.109588 368.078774 695.002913 346.334501 667.73396 346.334501 640.465012 346.334501 618.358337 368.078774 618.358337 394.900689 618.358337 421.722608 640.465012 443.481815 667.73396 443.481815 695.002913 443.481815 717.109588 421.722608 717.109588 394.900689M667.73396 345.856605C640.237265 345.856605 617.872472 367.85476 617.872472 394.900689 617.872472 421.946622 640.237265 443.95971 667.73396 443.95971 695.230659 443.95971 717.595448 421.946622 717.595448 394.900689 717.595448 367.85476 695.230659 345.856605 667.73396 345.856605L667.73396 345.856605ZM667.73396 443.003918C640.768675 443.003918 618.829014 421.423923 618.829014 394.900689 618.829014 368.377456 640.768675 346.812397 667.73396 346.812397 694.69925 346.812397 716.623728 368.377456 716.623728 394.900689 716.623728 421.423923 694.69925 443.003918 667.73396 443.003918L667.73396 443.003918Z"  horiz-adv-x="1024" />

    
    <glyph glyph-name="qq" unicode="&#58925;" d="M550.744931 61.193966 550.744931 61.193966c-11.183713 0-16.754592 0-22.327518 0-5.53404 0-11.144828 0-16.718777 0l-5.572926 0c-5.571902 0-16.717753 0-22.289656-5.53404-22.290679-22.326495-61.298088-33.475416-111.453395-33.475416-33.434483 0-61.298088 5.610788-89.163739 16.7198-22.289656 11.143805-33.435507 22.326495-33.435507 39.009456 0 16.717753 11.143805 27.862581 39.009456 39.045271 16.717753 5.535063 22.289656 11.106965 22.289656 22.326495 0 11.106965 0 22.25384-5.572926 27.863604-11.144828 11.034311-16.718777 27.788903-27.863604 38.896892-5.572926 11.144828-16.71673 16.755616-27.861558 16.755616l0 0c-11.144828 0-16.717753-5.608741-27.863604-11.220552-11.143805-11.106965-16.717753-16.644075-22.290679-16.644075l0 0c-5.572926 0-11.106965 16.644075-11.106965 44.505633 0 27.863604 5.535063 61.336974 11.070126 94.810343 11.145851 33.398668 27.862581 61.261249 55.725162 89.124853 5.574972 5.535063 11.146874 16.717753 11.146874 27.863604 0 5.53404 0 5.53404 0 11.106965 0 16.755616 5.571902 33.435507 16.71673 50.154283 5.573949 5.572926 5.573949 11.143805 5.573949 16.717753l0 5.573949c0.035816 66.908876 22.288632 122.635061 72.480778 172.789345 44.582381 50.191122 100.30652 72.444962 167.180604 72.444962 66.872037 0 122.600269-22.290679 172.751482-72.444962 44.618197-50.154283 72.480778-105.880469 72.480778-172.715667 0 0 0 0 0-5.572926 0-5.573949 0-11.144828 5.536087-16.717753 11.141758-16.718777 16.717753-33.398668 16.717753-50.154283 0-5.572926 0-5.572926 0-11.106965 0-11.144828 0-22.326495 11.143805-27.862581 27.863604-27.862581 44.581358-55.726186 55.726186-89.124853 11.144828-33.474392 16.717753-66.944691 11.144828-94.810343 0-27.862581-5.573949-38.97057-16.681938-44.50768-5.573949 0-11.183713 5.535063-22.328541 16.645099-5.533017 5.572926-16.718777 11.219529-27.861558 11.219529l-5.536087 0c-11.184737 0-22.325471-5.606695-27.861558-16.753569-5.573949-16.71673-16.754592-27.863604-27.863604-38.969547-5.572926-5.608741-11.18269-16.754592-5.572926-27.863604 0-11.220552 11.145851-16.753569 16.682961-22.326495 27.826765-11.219529 39.010479-22.364357 39.010479-39.08211 0-16.680914-11.183713-27.863604-33.43653-39.008432-22.289656-11.106965-55.724139-16.7198-89.164762-16.7198-50.15326 0-83.58979 11.184737-111.452371 33.474392 5.571902 0-5.572926 5.572926-11.106965 5.572926l0 0L550.744931 61.193966zM678.880263-44.724365c55.726186 0 100.30652 11.143805 133.74305 33.398668 33.435507 22.326495 55.724139 50.191122 55.724139 89.163739 0 22.291702-5.53404 39.046295-16.678868 55.726186 5.571902 0 16.678868 0 22.287609 5.608741 33.435507 11.106965 50.15633 38.97057 55.727209 83.591837 5.571902 38.9675 0 83.58979-16.681938 133.706211-11.18269 39.046295-33.435507 72.444962-61.297065 105.880469l0 0c0 27.862581-5.573949 50.154283-16.7198 78.015841 0 83.590813-27.861558 156.034752-89.124853 217.370703C684.450119 819.036118 612.004133 846.901769 528.418436 846.901769c-83.590813 0-156.034752-27.862581-217.334887-89.124853-55.764048-61.33595-89.163739-133.781936-89.163739-217.370703-11.143805-22.290679-16.717753-50.154283-16.717753-78.016865l0-5.571902c-33.434483-27.863604-50.154283-66.87306-61.298088-100.305497-16.718777-50.118468-22.290679-94.737688-16.718777-133.708258 5.573949-44.61922 27.863604-72.482825 55.726186-83.590813 5.572926 0 16.718777-5.608741 22.290679-5.608741-11.144828-16.681938-16.718777-33.43653-16.718777-55.726186 0-33.435507 16.718777-66.872037 55.727209-89.163739 33.435507-22.291702 78.015841-33.435507 128.169101-33.435507 55.725162 0 105.880469 11.142781 139.316999 39.007409l27.863604 0c39.045271-27.862581 83.590813-39.007409 139.316999-39.007409l0 0L678.880263-44.724365z"  horiz-adv-x="1024" />

    
    <glyph glyph-name="zhiye" unicode="&#58917;" d="M985.3952 345.4976 985.3952 500.8384 500.6336 742.4 0 500.8384l241.4592-137.1136c-6.2464-16.4864-9.6256-34.4064-9.6256-53.0432l0-133.12c0-83.968 69.2224-152.064 154.5216-152.064l231.8336 0c85.4016 0 154.5216 68.096 154.5216 152.064l0 133.12c0 20.48-4.096 40.0384-11.5712 57.856l185.4464 109.4656 0-132.5056c-22.528-7.7824-38.6048-28.9792-38.6048-53.76 0-31.5392 25.9072-57.0368 57.9584-57.0368 32.0512 0 57.9584 25.4976 57.9584 57.0368C1024 316.6208 1007.8208 337.7152 985.3952 345.4976zM734.208 189.2352c0-69.4272-59.2896-125.6448-132.5056-125.6448L402.944 63.5904c-73.216 0-132.5056 56.2176-132.5056 125.6448L270.4384 299.2128c0 15.2576 2.8672 29.9008 8.192 43.52l223.6416-126.976 222.0032 131.072c6.3488-14.6432 9.8304-30.72 9.8304-47.616L734.1056 189.2352zM501.248 253.7472 57.9584 500.6336l441.6512 209.1008 427.7248-209.1008L501.248 253.7472zM985.3952 272.7936l-38.6048 0 0 37.9904 38.6048 0L985.3952 272.7936z"  horiz-adv-x="1024" />

    
    <glyph glyph-name="gongzuojingyan2" unicode="&#59031;" d="M512 830.650643c-246.677169 0-446.650643-199.973474-446.650643-446.650643 0-246.676146 199.973474-446.650643 446.650643-446.650643s446.650643 199.974497 446.650643 446.650643C958.650643 630.677169 758.677169 830.650643 512 830.650643zM512 18.558937c-201.505363 0-365.442086 163.936723-365.442086 365.441063s163.936723 365.442086 365.442086 365.442086S877.441063 585.505363 877.441063 384 713.505363 18.558937 512 18.558937zM715.022926 424.605813 552.60479 424.605813 552.60479 627.62874c0 22.425755-18.179035 40.60479-40.60479 40.60479-22.425755 0-40.60479-18.179035-40.60479-40.60479l0-243.627716c0-22.425755 18.179035-40.60479 40.60479-40.60479l203.022926 0c22.425755 0 40.60479 18.179035 40.60479 40.60479C755.627716 406.426779 737.448682 424.605813 715.022926 424.605813z"  horiz-adv-x="1024" />

    
    <glyph glyph-name="qq1" unicode="&#58941;" d="M944.0512 208.768c-6.8096 93.8368-69.7728 172.4672-106.176 213.12 5.056 11.8272 17.344 80.2944-30.1312 127.0272 0.064 1.1136 0.064 2.24 0.064 3.328 0 184.3072-131.1872 316.9792-295.7952 317.5808C347.3664 869.2096 216.192 736.5504 216.192 552.2432c0-1.088-0.0128-2.2016 0.064-3.328-47.4752-46.72-35.1616-115.2-30.1312-127.0272-36.3648-40.6656-99.3536-119.2832-106.176-213.12-1.2288-24.6656 2.5856-60.5952 14.6304-76.5696 14.6816-19.4688 54.9888 3.9168 83.8144 66.1376 8.0128-28.8384 26.5216-72.8448 68.416-128.704-70.0928-16-90.0864-85.12-66.5088-122.9184 16.64-26.624 54.7072-48.5248 120.3328-48.5248 116.7488 0 168.2944 31.3728 191.3088 53.2224 4.6848 4.7616 11.456 7.0656 20.0832 7.0784 8.6144-0.0128 15.3856-2.3168 20.0576-7.0784 23.0016-21.8496 74.5856-53.2224 191.2832-53.2224 65.6512 0 103.7056 21.9008 120.32 48.5248 23.5904 37.7856 3.5968 106.9184-66.4704 122.9184 41.8816 55.8592 60.4032 99.8656 68.416 128.704 28.8256-62.2208 69.1328-85.6064 83.8272-66.1376C941.4912 148.16 945.3184 184.1024 944.0512 208.768L944.0512 208.768z"  horiz-adv-x="1024" />

    
    <glyph glyph-name="gongzuojingyan3" unicode="&#58956;" d="M874.140389 655.583418 757.779218 655.583418l0 44.62843c0 56.19179-45.721321 101.912088-101.912088 101.912088L399.169747 802.123936c-56.190767 0-101.911064-45.720298-101.911064-101.912088l0-44.62843L180.896488 655.583418c-56.196906 0-101.912088-45.715181-101.912088-101.917204l0-447.052802c0-56.19179 45.715181-101.906971 101.912088-101.906971l693.243901 0c56.196906 0 101.912088 45.715181 101.912088 101.906971L976.052476 553.665191C976.052476 609.867214 930.337295 655.583418 874.140389 655.583418zM352.761788 705.328379c0 22.769586 18.523889 41.287335 41.291428 41.287335l266.931468 0c22.768563 0 41.292452-18.522865 41.292452-41.287335l0-49.744961L352.761788 655.583418 352.761788 705.328379zM171.686732 600.074174l711.663412 0c22.76447 0 41.288358-18.522865 41.288358-41.292452l0-176.970574L792.179702 381.811148c-0.361227 24.314779-20.345374 44.097334-44.744064 44.097334l0 0c-24.397666 0-44.382836-19.782555-44.74304-44.097334l-350.349343 0c-0.361227 24.314779-20.345374 44.097334-44.74304 44.097334l0 0c-24.397666 0-44.382836-19.782555-44.74304-44.097334L130.394281 381.811148l1.023306 176.970574C131.417587 581.551308 148.923286 600.074174 171.686732 600.074174zM883.350145 60.213639 172.710039 60.213639c-22.768563 0-42.315758 18.523889-42.315758 41.283242L130.394281 323.233008l132.448568 0 0-44.101427c0-24.615631 20.142759-44.756343 44.75839-44.756343l0 0c24.614607 0 44.757367 20.142759 44.757367 44.756343l0 44.101427 350.320691 0 0-44.101427c0-24.615631 20.141736-44.756343 44.756343-44.756343l0 0c24.615631 0 44.75839 20.142759 44.75839 44.756343l0 44.101427 132.443451 0 0-221.73715C924.642596 78.737528 906.119731 60.213639 883.350145 60.213639z"  horiz-adv-x="1024" />

    
    <glyph glyph-name="icon15" unicode="&#58894;" d="M802.619984 845.015815 221.35648 845.015815c-55.704696 0-101.026928-45.541219-101.026928-101.525278l0-729.379912c0-50.240241 40.863686-91.12644 91.12644-91.12644 15.228843 0 30.02892 3.939729 44.103474 11.751648l256.431324 144.738475L768.568447-65.350125c13.969153-7.724938 28.742625-11.664667 43.976584-11.664667 50.239218 0 91.125417 40.885176 91.125417 91.12644L903.670447 743.490537C903.647935 799.474596 858.32468 845.015815 802.619984 845.015815L802.619984 845.015815zM860.132862 14.087089c0-26.240641-21.347191-47.605228-47.611367-47.605228-7.723915 0-15.425318 2.086521-22.738887 6.135744L511.99079 129.45463l-277.709953-156.750043c-7.40055-4.112668-15.101953-6.204305-22.849404-6.204305-26.240641 0-47.582715 21.347191-47.582715 47.587831l0 729.402425c0 31.984459 25.802666 58.005089 57.507762 58.005089l581.286016 0c31.682583 0 57.490366-26.02063 57.490366-58.005089L860.132862 14.087089 860.132862 14.087089zM860.132862 14.087089M316.157613 605.668589l0-43.516096 391.661238 0 0 43.516096L316.157613 605.668589 316.157613 605.668589zM316.157613 366.300896l391.661238 0 0 43.538609L316.157613 409.839505 316.157613 366.300896 316.157613 366.300896zM316.157613 366.300896"  horiz-adv-x="1024" />

    
    <glyph glyph-name="liaotian1" unicode="&#58891;" d="M485.734375 819.140625c-235.21875 0-425.578125-165.59375-425.578125-369.859375 0-125.328125 72.734375-236.765625 182.609375-304.828125l0-114.53125c0-15.46875 10.828125-24.75 23.21875-24.75 4.640625 0 9.296875 1.53125 12.375 3.09375l116.0625 77.375c29.421875-6.1875 58.8125-7.75 89.765625-7.75 235.21875 0 425.5625 165.59375 425.5625 369.859375C911.315625 653.546875 720.971875 819.140625 485.734375 819.140625zM485.734375 139.79375c-26.3125 0-52.625 3.09375-78.921875 7.75l-12.390625 3.09375c-7.734375 1.53125-15.46875 0-23.21875-4.65625l-10.8125-7.71875-55.71875-37.15625 0 43.34375 0 17c0 10.84375-6.1875 21.6875-15.46875 26.3125l-15.484375 9.28125c-95.953125 57.28125-153.203125 151.65625-153.203125 250.703125 0 170.21875 162.5 307.9375 363.671875 307.9375 201.1875 0 363.65625-137.71875 363.65625-307.9375C849.409375 279.075 685.378125 139.79375 485.734375 139.79375zM244.3125 438.46875c0-28.21875 22.859375-51.078125 51.078125-51.078125 28.203125 0 51.0625 22.859375 51.0625 51.078125 0 28.171875-22.859375 51.046875-51.0625 51.046875C267.171875 489.515625 244.3125 466.640625 244.3125 438.46875zM437.765625 438.46875c0-28.21875 22.859375-51.078125 51.0625-51.078125s51.078125 22.859375 51.078125 51.078125c0 28.171875-22.875 51.046875-51.078125 51.046875S437.765625 466.640625 437.765625 438.46875zM625 438.46875c0-28.21875 22.875-51.078125 51.0625-51.078125 28.21875 0 51.09375 22.859375 51.09375 51.078125 0 28.171875-22.875 51.046875-51.09375 51.046875C647.875 489.515625 625 466.640625 625 438.46875zM918.128 358.512c-0.912 1.152-1.872 2.256-2.816 3.408-6.656-25.28-16.16-49.632-28.128-72.752 0.496-1.12 1.12-2.192 1.6-3.312 8.096-18.624 12.496-38.752 12.496-59.744 0-55.664-32.16-108.688-86.064-140.848l-8.688-5.216c-5.216-2.592-8.72-8.688-8.72-14.784l0-9.568 0-24.336-31.28 20.88-6.096 4.336c-4.336 2.592-8.688 3.472-13.024 2.592l-6.944-1.712c-14.816-2.656-29.6-4.336-44.336-4.336-35.44 0-68.816 7.84-97.936 21.504-28.912-6.752-58.912-11.008-89.808-12.464 48.4-41.712 115.008-67.504 188.592-67.504 19.504 0 38 0.976 56.496 4.848l73.056-48.688c1.936-0.976 4.848-1.936 7.744-1.936 7.808 0 14.624 5.84 14.624 15.568l0 72.096c69.152 42.848 114.944 112.976 114.944 191.84C963.84 276.576 946.992 321.36 918.128 358.512z"  horiz-adv-x="1024" />

    
    <glyph glyph-name="huidaoshouye-szxdf" unicode="&#58884;" d="M510.80192-112.64c-273.84832 0-496.64512 222.79168-496.64512 496.64S236.9536 880.64 510.80192 880.64s496.64-222.79168 496.64-496.64-222.79168-496.64-496.64-496.64z m0 972.8C248.2432 860.16 34.6368 646.5536 34.6368 384s213.6064-476.16 476.16512-476.16c262.5536 0 476.16 213.6064 476.16 476.16s-213.6064 476.16-476.16 476.16zM799.44192 355.3792l-274.96448 274.17088-4.6592 4.92544s-5.99552 6.93248-10.12224 7.57248c-0.1536 0.03584-0.31232 0-0.4864 0.03584-0.1792-0.03584-0.3584 0-0.50688-0.03584-4.34688-1.8688-10.22464-8.09984-10.22464-8.09984l-4.54144-4.39296-274.43712-273.64864c-23.43424 6.3488-42.93632 22.05696-53.82144 43.32032L458.46016 692.4288c28.7744 28.8256 75.44832 28.8256 104.2176 0l293.24288-293.69856c-11.38176-21.888-31.95904-37.62176-56.47872-43.35104zM762.34752 329.69216v-224.70656c0-24.56576-20.5824-44.48256-45.98272-44.48256h-114.02752c0.11264 1.3824 0.37376 2.70848 0.37376 4.12672v176.03072c0 25.3952-18.81088 45.98272-41.99936 45.98272H463.6416c-23.2192 0-42.0096-20.58752-42.0096-45.98272v-176.03584c0-1.408 0.24576-2.7392 0.37376-4.12672H306.43712c-25.41056 0-45.99296 19.92192-45.99296 44.48256v229.43232l248.76032 267.47392 253.14304-272.19456z"  horiz-adv-x="1024" />

    
    <glyph glyph-name="huidaoshouye" unicode="&#58897;" d="M814.399261 389.050016c-1.51961 91.518367-37.115316 182.582385-106.804514 252.272607-142.483108 142.483108-374.295731 142.483108-516.77884 0-142.483108-142.485155-142.483108-374.309034 0-516.792143 82.826404-82.839707 195.882296-117.417223 304.016085-103.919814V159.24205c-72.579015-14.687514-150.990876 5.964852-207.17141 62.146409-89.058338 89.085968-89.058338 234.004545 0 323.090512 89.085968 89.072665 234.004545 89.072665 323.090513-0.013303 42.990117-42.976814 65.215304-98.960873 66.713424-155.410535l-150.208047 0.005116 213.08305-213.085096 219.531925 213.07077-145.472186 0.004093z"  horiz-adv-x="1024" />

    
    <glyph glyph-name="gerenxinxi" unicode="&#58885;" d="M960.5632 778.83392H63.4368C28.39552 778.83392 0 745.84064 0 705.13664V62.8736c0-40.704 28.39552-73.69728 63.4368-73.69728h897.13664c35.03104 0 63.4368 32.99328 63.4368 73.69728V705.13664c-0.01024 40.704-28.40576 73.69728-63.44704 73.69728z m-439.74656-205.4144H817.3568c3.01056 0 5.45792-18.08384 5.45792-40.38656s-2.44736-40.38656-5.45792-40.38656H520.81664c-3.01056 0-5.45792 18.08384-5.45792 40.38656s2.44736 40.38656 5.45792 40.38656z m0-175.43168H817.3568c3.01056 0 5.45792-18.08384 5.45792-40.38656s-2.44736-40.38656-5.45792-40.38656H520.81664c-3.01056 0-5.45792 18.08384-5.45792 40.38656s2.44736 40.38656 5.45792 40.38656zM457.0112 215.5008c0-10.0352-7.89504-18.16576-17.62304-18.16576H98.77504c-9.728 0-17.62304 8.13056-17.62304 18.16576v0.06144s0 66.27328 46.88896 90.37824c29.70624 15.23712 18.25792 2.83648 54.72256 18.4832 36.42368 15.5648 45.056 21.01248 45.056 21.01248l0.32768 35.91168s-13.63968 10.77248-17.8688 44.57472c-8.57088-2.57024-11.38688 10.33216-11.86816 18.57536-0.45056 7.92576-4.94592 32.69632 5.4784 30.464-2.1504 16.5376-3.66592 31.45728-2.89792 39.3728 2.60096 27.7504 28.4672 56.7296 68.36224 58.84928 46.88896-2.11968 65.49504-31.09888 68.096-58.84928 0.768-7.90528-0.9216-22.8352-3.05152-39.35232 10.43456 2.22208 5.90848-22.51776 5.41696-30.464-0.48128-8.192-3.36896-21.08416-11.86816-18.51392-4.29056-33.81248-17.93024-44.50304-17.93024-44.50304l0.32768-35.7376s8.63232-5.07904 45.056-20.64384c36.4544-15.59552 25.02656-3.9424 54.72256-19.17952 46.8992-24.08448 46.8992-90.35776 46.8992-90.35776v-0.08192z m449.45408-72.448H522.42432c-3.90144 0-7.0656 18.08384-7.0656 40.38656s3.16416 40.38656 7.0656 40.38656h384.04096c3.90144 0 7.0656-18.08384 7.0656-40.38656s-3.16416-40.38656-7.0656-40.38656z"  horiz-adv-x="1024" />

    
    <glyph glyph-name="shixijingli" unicode="&#58909;" d="M512-128C229.216-128 0 101.216 0 384S229.216 896 512 896s512-229.216 512-512-229.216-512-512-512z m0 992C246.912 864 32 649.088 32 384c0-265.088 214.912-480 480-480 265.088 0 480 214.912 480 480 0 265.088-214.912 480-480 480z m192-768H320a64 64 0 0 0-64 64V608a64 64 0 0 0 64 64h384a64 64 0 0 0 64-64v-448a64 64 0 0 0-64-64z m-288 448h-64v-64h64v64z m0-128h-64v-64h64v64z m0-128h-64v-64h64v64z m256 256h-224v-64h224v64z m0-128h-224v-64h224v64z m0-128h-224v-64h224v64z"  horiz-adv-x="1024" />

    
    <glyph glyph-name="gerenxinxi1" unicode="&#58937;" d="M741.5 584.103c0 142.563-112.562 258.579-250.934 258.579-138.331 0-250.934-116.016-250.934-258.579 0-97.234 52.398-182.016 129.577-226.154-151.399-56.057-259.977-205.399-259.977-380.47 0-15.493 12.206-28.069 27.205-28.069 15.093 0.206 27.251 12.491 27.251 27.614 0 0.159-0.001 0.32-0.004 0.479 0 191.897 151.522 348.063 337.731 348.063 2.434 0.028 4.773 0.379 6.994 1.013 129.857 9.137 233.091 121.003 233.091 257.524zM490.564 381.621c-108.33 0-196.441 90.823-196.441 202.442s88.111 202.442 196.441 202.442 196.482-90.823 196.482-202.442-88.111-202.442-196.482-202.442zM542.798 235.029c0-15.493 12.206-28.069 27.248-28.069h319.196c15.099 0.229 27.25 12.524 27.25 27.654 0 0.146-0.001 0.291-0.003 0.436 0.002 0.101 0.003 0.246 0.003 0.393 0 15.132-12.151 27.425-27.228 27.654h-319.217c-15.099-0.229-27.25-12.524-27.25-27.654 0-0.146 0.001-0.291 0.003-0.436zM889.241 148.357h-319.196c-15.099-0.229-27.25-12.524-27.25-27.654 0-0.146 0.001-0.291 0.003-0.436 0-15.472 12.205-28.047 27.246-28.047h319.196c15.093 0.206 27.251 12.491 27.251 27.614 0 0.159-0.001 0.32-0.004 0.479 0.002 0.099 0.003 0.244 0.003 0.39 0 15.132-12.151 27.425-27.228 27.654zM889.241 19.561h-319.196c-15.041 0-27.248-12.534-27.248-28.069s12.206-28.069 27.248-28.069h319.196c15.083 0 27.248 12.534 27.248 28.069s-12.206 28.069-27.248 28.069z"  horiz-adv-x="1024" />

    
    <glyph glyph-name="dianhua" unicode="&#58978;" d="M93.7984 683.4176s-36.864-187.5968 240.5376-464.9984c2.048-2.048 3.9936-3.7888 5.9392-5.8368 1.9456-1.9456 3.7888-3.9936 5.8368-5.9392C623.4112-70.656 811.008-33.792 811.008-33.792c11.4688 1.536 35.6352 8.3968 43.8272 16.5888 0 0 42.7008 35.1232 68.8128 78.336s-23.2448 108.3392-51.712 136.8064c-57.344 57.344-110.1824 68.608-133.4272 52.6336-10.4448-7.168-51.9168-51.9168-51.9168-51.9168-8.192-8.192-24.3712-14.9504-35.9424-15.1552 0 0-72.4992-0.7168-207.4624 132.096-132.8128 134.8608-132.096 207.4624-132.096 207.4624 0.2048 11.5712 6.9632 27.7504 15.1552 35.9424 0 0 51.5072 51.4048 51.9168 51.9168 19.5584 24.4736-12.8 85.1968-52.6336 133.4272-25.6 31.0272-46.2848 49.152-85.0944 56.5248-51.8144 9.8304-144.7936-59.0848-146.6368-117.4528z"  horiz-adv-x="1024" />

    
    <glyph glyph-name="jineng" unicode="&#58939;" d="M782.761704 788.75751s-28.708855 28.708855-57.417711 0L139.105175 202.517669l-14.941294-14.941294L287.426245 24.273079l23.931039-23.931039 13.240559-13.240559 28.628014 28.628014-0.040932 0.040933 458.123952 458.123952 0.040932-0.040933 28.628014 28.628015-0.040932 0.040932 85.842087 85.842087c28.708855 28.708855 0 57.417711 0 57.417711L782.761704 788.75751zM324.476069 44.47826l-142.976342 142.976342 458.123952 458.163861 142.976342-142.976342-458.123952-458.163861zM811.228035 531.229203l-142.976342 142.976342 85.842087 85.842087 142.976342-142.976342-85.842087-85.842087zM142.042063 24.180981l25.083282 120.392998-43.447535 43.447534-37.953403-219.645512c-2.004657-11.604292 8.103562-21.686928 19.702737-19.650549l219.129766 38.45687-13.20065 13.159718-23.890106 23.931039-126.060067-20.354584c-11.773138-1.90028-21.796422 8.587586-19.364024 20.262486zM720.128201-62.708971c-13.32447 0-26.649963 5.298679-36.475749 15.742542l-590.969563 629.40085c-9.157567 9.723455-13.942547 22.430872-13.530155 35.806508 0.411369 13.376659 6.019087 25.775037 15.793708 34.881438L269.659603 817.18598c19.909445 18.881023 51.806923 17.851577 70.687945-2.212388l590.969563-629.40085c9.157567-9.723455 13.942547-22.430872 13.530155-35.806508-0.411369-13.376659-6.019087-25.775037-15.794732-34.881438L754.340397-49.178817c-9.568936-9.054213-21.916149-13.530155-34.212196-13.530154zM305.826314 782.511249L127.35762 618.549967l590.815043-633.05303 178.468694 163.961282c1.028423 0.977257 1.080611 2.623757 0.103354 3.704369L305.826314 782.511249z"  horiz-adv-x="1024" />

    
    <glyph glyph-name="youxiang" unicode="&#58957;" d="M822.606177 679.9115L201.393823 679.9115c-45.025473 0-81.864496-36.839023-81.864496-81.864496l0-428.095032c0-45.025473 36.839023-81.864496 81.864496-81.864496L822.606177 88.087477c45.025473 0 81.864496 36.839023 81.864496 81.864496L904.470673 598.047004C904.470673 643.072477 867.63165 679.9115 822.606177 679.9115zM624.234177 402.088984c-0.705058 0.705058-1.443885 1.354857-2.206248 1.959631l231.244688 195.320501c0.019443-0.438998 0.032746-0.880043 0.032746-1.322112l0-425.03023L624.234177 402.088984zM512 378.089383L215.239156 628.74619 808.760844 628.74619 512 378.089383zM170.694637 184.785819l0 413.262208c0 0.442068 0.013303 0.883113 0.032746 1.322112L395.45975 409.550932 170.694637 184.785819zM197.748806 139.480984l236.936317 236.93734 60.71378-51.281967c0.599657-0.512676 1.220804-0.98749 1.855254-1.436722 0.052189-0.036839 0.103354-0.073678 0.154519-0.110517 0.586354-0.407276 1.184989-0.788969 1.796926-1.143033 0.069585-0.039909 0.13917-0.076748 0.208754-0.116657 0.569982-0.321318 1.14815-0.623193 1.737574-0.898463 0.061398-0.028653 0.121773-0.060375 0.182149-0.089028 0.580215-0.26606 1.169639-0.502443 1.765203-0.722454 0.168846-0.062422 0.337691-0.12382 0.50756-0.183172 0.573051-0.198521 1.150196-0.381693 1.734504-0.538259 0.155543-0.041956 0.311085-0.074701 0.467651-0.113587 0.48914-0.121773 0.980327-0.228197 1.474584-0.320295 0.171915-0.031722 0.341784-0.067538 0.5137-0.096191 0.592494-0.098237 1.189082-0.172939 1.786693-0.230244 0.167822-0.01535 0.334621-0.027629 0.502443-0.039909 0.618077-0.046049 1.237177-0.077771 1.856277-0.078795 0.014326 0 0.028653-0.002047 0.042979-0.002047 0.004093 0 0.00921 0 0.013303 0s0.00921 0 0.013303 0c0.014326 0 0.028653 0.002047 0.042979 0.002047 0.620124 0.002047 1.238201 0.032746 1.856277 0.078795 0.167822 0.01228 0.334621 0.024559 0.502443 0.039909 0.597611 0.056282 1.193175 0.130983 1.785669 0.230244 0.172939 0.028653 0.343831 0.064468 0.515746 0.097214 0.493234 0.092098 0.983397 0.198521 1.470491 0.319272 0.156566 0.038886 0.314155 0.072655 0.470721 0.11461 0.582261 0.156566 1.159406 0.339738 1.731434 0.537236 0.170892 0.059352 0.341784 0.12075 0.511653 0.184195 0.594541 0.220011 1.182942 0.456395 1.76111 0.721431 0.063445 0.029676 0.125867 0.062422 0.189312 0.092098 0.586354 0.274246 1.161453 0.574075 1.728364 0.893346 0.071631 0.040932 0.143263 0.078795 0.214894 0.119727 0.610914 0.353041 1.207501 0.733711 1.791809 1.139963 0.054235 0.037862 0.107447 0.076748 0.160659 0.11461 0.633427 0.447185 1.252527 0.920976 1.850138 1.431605l55.120388 46.556339c1.13894-2.073218 2.579755-4.024663 4.336772-5.780657l226.656183-226.657206L201.393823 139.251763C200.166879 139.25381 198.952214 139.335674 197.748806 139.480984z"  horiz-adv-x="1024" />

    
    <glyph glyph-name="huidaoshouye1" unicode="&#58910;" d="M513.335652 805.62087l1.357913 1.335652 378.434783-378.434783L845.913043 381.306435 513.335652 713.861565 180.802783 381.284174 133.565217 428.521739 512 806.956522l1.335652-1.335652zM512 562.086957l111.304348-133.565218H400.695652l111.304348 133.565218z m222.608696-512V339.478261h66.782608v-356.173913H222.608696V339.478261h66.782608v-289.391304h445.217392z"  horiz-adv-x="1024" />

    
    <glyph glyph-name="dianhua1" unicode="&#58924;" d="M301.074 600.819c0.938 21.535 6.551 29.027 29.954 52.431 12.173 12.173 24.351 22.47 33.701 28.091 4.693 0.933 9.365-3.739 17.797-12.171 29.024-25.276 58.979-75.828 65.537-116.102 0-5.61-0.008-9.351-1.875-14.979-9.358-22.462-43.073-18.716-7.491-134.806 22.468-80.515 44.945-117.974 61.795-134.824 23.404-23.404 34.628-8.419 51.484-21.53 3.746-3.746 14.979-18.722 21.531-38.38 13.118-41.207 21.536-98.313 0.939-118.91-4.685-8.42-19.663-10.292-26.215-16.844-3.741-13.112 10.298-23.402 14.99-31.843 55.233-58.976 163.83-2.8 225.619 64.604 132.013 145.117 170.394 383.854-3.747 561.739-117.028 117.028-349.206 178.82-551.441-6.551-119.835-106.731-184.432-366.071-4.68-549.569 65.548-69.283 150.73-109.536 268.704-118.902-6.553-36.521-63.663-29.962-90.812-21.531-111.411 23.396-176.007 74.888-207.848 110.478-177.88 185.37-149.802 464.368 3.747 608.547 215.339 204.089 485.905 133.88 612.292 7.493 207.849-209.727 146.058-483.097-4.685-630.084-79.574-79.574-197.536-126.398-265.879-58.055-16.85 16.85-19.67 27.161-29.962 63.676-1.867 1.867-9.365 3.739-9.365 3.739-14.979-1.875-20.597 9.371-27.142 12.17-58.058 56.178-126.395 197.542-155.416 333.294-14.986 61.792-27.151 143.239-21.537 178.82zM601.606 96.198c34.636 8.426 52.426 18.725 57.105 23.404 17.792 25.283 0.006 114.215-17.784 132.006-16.85 16.85-40.254 6.553-69.282 5.613 39.322-69.276 40.261-111.409 29.962-161.021zM471.461 554.013c15.924 6.552 31.836 18.732 41.195 28.091 8.432 12.165 11.24 16.85 9.365 28.081-10.291 23.41-19.662 57.112-39.322 78.648-6.552 6.552-13.098 16.846-20.595 18.717-9.353 1.873-39.322 1.872-64.598-10.298 45.872-47.737 60.854-83.321 73.953-143.239z"  horiz-adv-x="1024" />

    
    <glyph glyph-name="xueli" unicode="&#58942;" d="M987.136 525.312L530.432 857.088l-18.432 14.336-18.432-14.336L36.864 525.312 0 498.688l38.912-24.576 456.704-288.768 16.384-10.24 16.384 10.24 456.704 288.768 38.912 24.576zM837.632 285.696L512 82.944 186.368 285.696l-47.104 28.672v-208.896c0-114.688 94.208-208.896 208.896-208.896h327.68c114.688 0 208.896 94.208 208.896 208.896V314.368l-47.104-28.672z"  horiz-adv-x="1024" />

    
    <glyph glyph-name="dianhua2" unicode="&#58883;" d="M44.8 384C44.8 640 256 844.8 512 844.8S979.2 640 979.2 384 768-83.2 512-83.2 44.8 121.6 44.8 384z m12.8 0c0-249.6 204.8-454.4 454.4-454.4 249.6 0 454.4 204.8 454.4 454.4 0 249.6-204.8 448-454.4 448C262.4 832 57.6 633.6 57.6 384z m153.6-185.6c0 12.8 6.4 25.6 25.6 44.8 12.8 12.8 32 25.6 44.8 32 19.2 19.2 38.4 25.6 57.6 38.4 25.6 12.8 38.4 12.8 44.8 12.8 12.8 0 25.6-6.4 32-19.2 6.4-6.4 12.8-19.2 12.8-32 0-6.4 6.4-19.2 12.8-19.2s19.2 6.4 44.8 25.6c25.6 19.2 51.2 38.4 70.4 57.6 19.2 19.2 38.4 44.8 57.6 64 12.8 25.6 19.2 38.4 19.2 44.8 0 6.4-12.8 12.8-19.2 12.8-12.8 6.4-19.2 12.8-32 12.8-12.8 12.8-19.2 25.6-19.2 38.4 0 6.4 0 19.2 12.8 44.8 6.4 19.2 19.2 38.4 32 57.6 19.2 6.4 32 25.6 44.8 44.8 19.2 19.2 32 25.6 44.8 25.6 32 0 64-44.8 76.8-57.6 12.8-19.2 44.8-64 44.8-102.4 0-38.4-25.6-89.6-44.8-128-32-44.8-70.4-96-115.2-147.2l-19.2-6.4c-44.8-44.8-96-83.2-147.2-115.2-38.4-19.2-83.2-44.8-128-44.8s-83.2 32-102.4 44.8c-12.8 0-51.2 38.4-51.2 70.4z m32 0s6.4-6.4 12.8-19.2c6.4-12.8 19.2-19.2 32-32 32-19.2 57.6-32 83.2-32s64 12.8 108.8 44.8c44.8 25.6 96 64 140.8 108.8l12.8 12.8c44.8 44.8 83.2 89.6 108.8 140.8 25.6 44.8 44.8 83.2 44.8 108.8 0 19.2-12.8 51.2-32 83.2-6.4 12.8-19.2 25.6-32 32-6.4 6.4-12.8 12.8-19.2 12.8-6.4 0-25.6-19.2-57.6-64-12.8-25.6-25.6-44.8-32-57.6-12.8-19.2-12.8-25.6-12.8-25.6l6.4-6.4c6.4-6.4 12.8-6.4 19.2-12.8 6.4-6.4 19.2-6.4 25.6-12.8 12.8-6.4 19.2-19.2 19.2-32 0-6.4 0-19.2-32-70.4-12.8-19.2-38.4-44.8-57.6-64-19.2-19.2-44.8-44.8-70.4-57.6-44.8-32-64-32-70.4-32-12.8 0-19.2 6.4-32 19.2 0 6.4-6.4 12.8-12.8 19.2 0 6.4-6.4 12.8-12.8 19.2v12.8s-6.4 0-25.6-12.8c-12.8-6.4-32-19.2-51.2-32-38.4-25.6-57.6-44.8-64-51.2z"  horiz-adv-x="1024" />

    
    <glyph glyph-name="youxiang1" unicode="&#58911;" d="M746.057143 584.655238H277.942857a33.401905 33.401905 0 0 1-34.133333-33.401905v-334.506666a33.401905 33.401905 0 0 1 33.401905-33.401905H746.057143a33.401905 33.401905 0 0 1 34.133333 33.401905V551.253333a33.401905 33.401905 0 0 1-34.133333 33.401905zM707.047619 277.942857a16.822857 16.822857 0 0 0-24.380952-24.380952L577.584762 359.619048l-32.182857-31.939048a48.761905 48.761905 0 0 0-66.80381-3.413333l-1.706666 1.706666-4.388572 4.388572-27.794286 29.257143-105.569523-105.569524a16.822857 16.822857 0 0 0-24.380953 24.380952L421.302857 384l-105.813333 106.300952a16.822857 16.822857 0 0 0 24.380952 24.380953L369.859048 481.52381l109.470476-109.470477a48.761905 48.761905 0 0 1 66.803809 1.462857L627.078095 457.142857l58.026667 57.295238a16.822857 16.822857 0 0 0 24.380952-24.380952L601.478095 384zM512 896a512 512 0 1 1 512-512A512 512 0 0 1 512 896z m0-975.238095a463.238095 463.238095 0 1 0 463.238095 463.238095 463.238095 463.238095 0 0 0-463.238095-463.238095z"  horiz-adv-x="1024" />

    
    <glyph glyph-name="shixijiuye" unicode="&#58994;" d="M87.7 690.3H929v-420.1H87.7V690.3zM936.9 269.8V222c0-34.8-28.2-63-63-63H150.8c-34.8 0-63 28.2-63 63v47.8h849.1zM626.3 96v-5.4c0-34.8-28.2-63-63-63H461.4c-34.8 0-63 28.2-63 63V96c0 34.8 28.2 63 63 63h101.9c34.8 0 63-28.2 63-63zM873.9 138H563.3c-11.6 0-21 9.4-21 21s9.4 21 21 21h310.6c23.2 0 42 18.9 42 42V648.3c0 23.2-18.9 42-42 42H150.8c-23.2 0-42-18.9-42-42v-426.2c0-23.2 18.9-42 42-42h310.6c11.6 0 21-9.4 21-21s-9.4-21-21-21H150.8c-46.3 0-84.1 37.7-84.1 84.1V648.3c0 46.3 37.7 84.1 84.1 84.1h723.1c46.3 0 84.1-37.7 84.1-84.1v-426.2c-0.1-46.4-37.8-84.1-84.1-84.1zM563.3 6.5c-11.6 0-21 9.4-21 21s9.4 21 21 21c23.2 0 42 18.9 42 42V96c0 23.2-18.9 42-42 42H461.4c-23.2 0-42-18.9-42-42v-5.4c0-23.2 18.9-42 42-42 11.6 0 21-9.4 21-21s-9.4-21-21-21c-46.3 0-84.1 37.7-84.1 84.1V96c0 46.3 37.7 84.1 84.1 84.1h101.9c46.3 0 84.1-37.7 84.1-84.1v-5.4c0-46.4-37.8-84.1-84.1-84.1zM733.8 6.5H290.9c-11.6 0-21 9.4-21 21s9.4 21 21 21h443c7.5 0 14.4-4 18.2-10.5 3.8-6.5 3.8-14.5 0-21-3.9-6.5-10.8-10.5-18.3-10.5z m203.1 242.3H87.7c-11.6 0-21 9.4-21 21s9.4 21 21 21h849.2c11.6 0 21-9.4 21-21s-9.4-21-21-21z"  horiz-adv-x="1024" />

    
    <glyph glyph-name="education" unicode="&#59177;" d="M508.2 779.4l451.1-225.5-451.1-225.6c-5.1-2.5-11.1-2.5-16.1 0l-418.8 209.4c-13.3 6.7-13.3 25.6 0 32.3l418.8 209.4c5.1 2.5 11.1 2.5 16.1 0zM520.2 221.5l266.9 160.2v-229.6l-265.8-159.5c-13-7.8-29.2-7.8-42.2 0l-265.9 159.5v229.5l266.9-160.2c12.4-7.3 27.8-7.3 40.1 0.1zM901.9 553.9h57.4s0 6 0 0c-0.2-39.8-0.1-240.3 0-315.7 0-15.9-12.8-28.7-28.7-28.7-15.8 0-28.7 12.8-28.7 28.7v315.7z"  horiz-adv-x="1024" />

    
    <glyph glyph-name="qq2" unicode="&#58944;" d="M512 896C229.376 896 0 666.624 0 384s229.376-512 512-512 512 229.376 512 512S794.624 896 512 896z m-1.024-989.525c-263.85 0-477.867 214.016-477.867 477.866S247.125 862.208 510.976 862.208s477.867-214.016 477.867-477.867-214.016-477.866-477.867-477.866zM175.445 360.448c-27.989-65.877-32.426-128.683-10.24-140.288 15.36-8.192 39.595 10.24 62.464 44.032 8.875-36.864 31.403-69.973 63.147-96.939-33.45-12.288-54.955-32.426-54.955-55.296 0-37.546 59.051-67.584 131.755-67.584 65.536 0 119.808 24.576 130.048 57.003h15.701c10.24-32.427 64.512-57.003 130.048-57.003 72.704 0 131.755 30.379 131.755 67.584 0 22.87-21.845 43.008-54.955 55.296 31.744 26.624 53.931 60.075 63.147 96.939 22.87-33.792 46.763-52.224 62.464-44.032 22.528 11.605 18.09 74.752-9.899 140.288-21.845 51.883-51.882 89.77-74.752 98.304 0.342 3.413 0.342 6.827 0.342 9.899 0 20.138-5.462 38.57-15.019 53.589v3.413c0 9.216-2.048 17.75-5.803 25.259-5.802 134.485-93.184 241.323-234.837 241.323S276.48 685.397 271.019 550.912c-3.755-7.51-5.803-16.043-5.803-25.259v-3.413c-9.557-15.019-15.019-33.45-15.019-53.59 0-3.413 0-6.826 0.342-9.898-23.211-8.875-53.248-46.763-75.094-98.304z"  horiz-adv-x="1024" />

    
    <glyph glyph-name="jinengt" unicode="&#58880;" d="M782.762 788.758s-28.709 28.709-57.418 0l-601.18-601.181 200.434-200.475 28.628 28.628-0.041 0.041 572.594 572.594c28.709 28.709 0 57.418 0 57.418l-143.017 142.975zM324.476 44.478l-142.976 142.976 458.124 458.164 142.976-142.976-458.124-458.164zM811.228 531.229l-142.976 142.976 85.842 85.842 142.976-142.976-85.842-85.842zM142.042 24.181l25.083 120.393-43.448 43.448-37.953-219.646c-2.005-11.604 8.104-21.687 19.703-19.651l219.13 38.457-13.201 13.16-23.89 23.931-126.060-20.355c-11.773-1.9-21.796 8.588-19.364 20.262zM720.128-62.709c-13.324 0-26.65 5.299-36.476 15.743l-590.97 629.401c-9.158 9.723-13.943 22.431-13.53 35.807 0.411 13.377 6.019 25.775 15.794 34.881l174.713 164.064c19.909 18.881 51.807 17.852 70.688-2.212l590.97-629.401c9.158-9.723 13.943-22.431 13.53-35.807-0.411-13.377-6.019-25.775-15.795-34.881l-174.712-164.064c-9.569-9.054-21.916-13.53-34.212-13.53zM305.826 782.511l-178.469-163.961 590.815-633.053 178.469 163.961c1.028 0.977 1.081 2.624 0.103 3.704l-590.918 629.349z"  horiz-adv-x="1024" />

    
    <glyph glyph-name="xuexi-Icon_pressed" unicode="&#58914;" d="M632 40h-240c-12.8 0-24-11.2-24-24s11.2-24 24-24h240c12.8 0 24 11.2 24 24s-11.2 24-24 24z m-48-80h-144c-12.8 0-24-11.2-24-24s11.2-24 24-24h144c12.8 0 24 11.2 24 24s-11.2 24-24 24zM224 744c-12.8 12.8-35.2 12.8-48 0-12.8-12.8-12.8-35.2 0-48l64-64c12.8-12.8 35.2-12.8 48 0 12.8 12.8 12.8 35.2 0 48l-64 64z m288-32c17.6 0 32 14.4 32 32v80c0 17.6-14.4 32-32 32s-32-14.4-32-32v-80c0-17.6 14.4-32 32-32z m336 32c-12.8 12.8-35.2 12.8-48 0l-64-64c-12.8-12.8-12.8-35.2 0-48 12.8-12.8 35.2-12.8 48 0l64 64c12.8 12.8 12.8 35.2 0 48z m96-304h-80c-17.6 0-32-14.4-32-32s14.4-32 32-32h80c17.6 0 32 14.4 32 32s-14.4 32-32 32z m-784 0H80c-17.6 0-32-14.4-32-32s14.4-32 32-32h80c17.6 0 32 14.4 32 32s-14.4 32-32 32zM512 376m-256 0a256 256 0 1 1 512 0 256 256 0 1 1-512 0Z"  horiz-adv-x="1024" />

    
    <glyph glyph-name="gengduo" unicode="&#58988;" d="M81.28 673.984h861.44c27.264 0 49.28 21.504 49.28 48s-22.016 48-49.28 48H81.28c-27.2 0-49.28-21.504-49.28-48s22.08-48 49.28-48zM942.72 433.984H81.28c-27.264 0-49.28-21.504-49.28-48s22.016-48 49.28-48h861.44c27.264 0 49.28 21.504 49.28 48s-22.144 48-49.28 48zM942.72 94.016H81.28c-27.2 0-49.28-21.504-49.28-48s22.08-48 49.28-48h861.44c27.264 0 49.28 21.504 49.28 48s-22.016 48-49.28 48z"  horiz-adv-x="1024" />

    
    <glyph glyph-name="lianxirendengluzhanghao" unicode="&#58990;" d="M972.416-47.232v0.256a49.28 49.28 0 0 1-3.968 19.392 466.304 466.304 0 0 1-364.032 364.864c104.448 37.952 179.52 137.216 179.52 254.72a272 272 0 1 1-544 0 271.104 271.104 0 0 1 179.648-254.72 466.56 466.56 0 0 1-368.128-384.896h0.512a48.896 48.896 0 0 1 97.6 0h0.704c33.856 169.728 182.016 298.24 361.728 298.24 179.84 0 327.744-128.512 361.664-298.24h1.024a48.896 48.896 0 0 1 97.792 0h0.128c-0.192 0.128-0.192 0.192-0.192 0.384zM335.936 592a176 176 0 1 0 352 0 176 176 0 1 0-352 0z"  horiz-adv-x="1024" />

    
    <glyph glyph-name="shoucang" unicode="&#58992;" d="M1003.2 495.68a49.408 49.408 0 0 1-17.472 13.824 42.88 42.88 0 0 1-17.6 7.04l-298.496 42.304L550.4 831.744a44.928 44.928 0 0 1-43.776 25.92 44.992 44.992 0 0 1-43.84-25.92l-119.04-272.512-294.336-41.728a44.928 44.928 0 0 1-36.736-35.2 44.992 44.992 0 0 1 13.312-49.152l225.856-183.936-85.952-277.76a44.864 44.864 0 0 1 16.128-48.128 44.8 44.8 0 0 1 50.24-8.96l281.024 134.656 272.576-130.624a44.8 44.8 0 0 1 50.24 8.896 44.8 44.8 0 0 1 16.128 48.192l-85.504 276.416 230.336 178.304c19.584 15.232 22.272 44.544 6.144 65.472z"  horiz-adv-x="1024" />

    
    <glyph glyph-name="shangjiantou" unicode="&#58993;" d="M975.744 420.096L547.136 848.768c-0.384 0.448-0.512 0.96-0.96 1.472A47.168 47.168 0 0 1 512 864a47.168 47.168 0 0 1-34.176-13.76c-0.448-0.512-0.576-1.024-0.96-1.472L48.256 420.096a48.64 48.64 0 0 1-0.96-68.736 48.64 48.64 0 0 1 68.8 0.832L464 700.096v-746.88c0-27.136 21.504-49.344 48-49.344s48 22.208 48 49.344V700.096l347.904-347.904c19.264-19.2 50.048-19.648 68.864-0.896a48.768 48.768 0 0 1-1.024 68.8z"  horiz-adv-x="1024" />

    
    <glyph glyph-name="shuaxin" unicode="&#58995;" d="M512.128 864a480 480 0 0 1 0-960A479.808 479.808 0 0 1 992 384.064 479.744 479.744 0 0 1 512.128 864zM331.136 207.936L217.728 350.784c-8.768 10.624-0.64 27.008 13.248 27.008h46.272c0.64 49.408 23.104 237.44 302.656 280.64 4.352 0.576 6.144-4.992 2.496-7.488-146.048-84.672-146.048-190.464-147.264-273.728h44.48c13.632 0 21.376-16.256 13.12-26.368L379.392 208a30.592 30.592 0 0 0-48.256-0.064z m462.272 182.336h-46.4c-0.64-50.112-23.104-237.44-302.528-280.704-4.352-0.576-6.272 4.992-2.624 7.488 145.984 84.608 145.984 190.528 147.392 273.856h-44.48c-13.632 0-21.76 16.32-13.12 26.88L644.48 560.64a30.592 30.592 0 0 0 48.128 0l113.536-142.848c8.64-10.56 1.152-26.88-12.736-27.52z"  horiz-adv-x="1024" />

    
    <glyph glyph-name="shuaxin1" unicode="&#58996;" d="M968.384 301.696l0.32 3.328h-1.024c-2.624 24.064-22.272 43.008-46.976 43.008s-44.352-18.944-46.976-43.008h-1.024A360.96 360.96 0 0 0 512.64-32a361.28 361.28 0 0 0-361.344 361.344c0 190.656 147.968 346.24 335.232 359.68v-107.008l254.784 157.056L486.592 896v-110.912c-240.32-13.632-431.296-212.032-431.296-455.744A457.28 457.28 0 0 1 512.64-128c240.96 0 437.376 186.496 455.04 422.912 0.192 1.728 1.024 3.264 1.024 5.056 0 0.64-0.32 1.088-0.32 1.728z"  horiz-adv-x="1024" />

    
    <glyph glyph-name="touxiang" unicode="&#58997;" d="M512 864a480 480 0 1 1 0-960 480 480 0 0 1 0 960z m-3.072-168.192a144.64 144.64 0 1 0 0-289.28 144.64 144.64 0 0 0 0 289.28zM256 121.856c-1.472 148.224 70.976 240.256 161.792 276.416l93.248-155.584 98.24 152c87.616-38.4 157.248-129.344 158.656-272.96-161.088-63.872-330.88-68.48-511.936 0.128z"  horiz-adv-x="1024" />

    
    <glyph glyph-name="weishoucang" unicode="&#58998;" d="M1003.2 495.744a49.792 49.792 0 0 1-17.408 13.824 42.88 42.88 0 0 1-17.6 7.04l-298.496 42.304L550.4 831.808a44.8 44.8 0 0 1-43.776 25.856 44.8 44.8 0 0 1-43.84-25.856l-119.04-272.512-294.336-41.792a44.928 44.928 0 0 1-36.736-35.136 44.992 44.992 0 0 1 13.312-49.152l225.856-183.872-85.952-277.76a45.056 45.056 0 0 1 16.128-48.256 45.056 45.056 0 0 1 50.24-8.896l281.024 134.656 272.576-130.624a44.8 44.8 0 0 1 50.24 8.896 44.992 44.992 0 0 1 16.128 48.32l-85.504 276.416 230.336 178.24c19.584 15.104 22.272 44.416 6.144 65.408z m-378.944-25.92c2.368-0.768 4.352-2.24 6.976-2.56l217.088-30.72-164.672-127.296c-16.768-11.392-25.472-30.912-19.584-49.984l63.872-206.592-194.752 93.504a43.072 43.072 0 0 1-39.232-1.92c-2.944-0.64-5.952-0.768-8.768-2.048l-194.816-93.504 63.872 206.656a40.832 40.832 0 0 1-2.368 29.248c-0.448 1.216-0.64 2.368-1.216 3.584a49.728 49.728 0 0 1-9.472 11.968c-0.512 0.448-0.768 1.152-1.28 1.536l-0.256 0.256-2.688 2.112L172.16 437.952l214.08 30.272c1.984 0.256 3.52 1.408 5.44 2.048a40.96 40.96 0 0 1 5.76 2.112 41.024 41.024 0 0 1 19.584 17.344c0.896 1.472 2.304 2.56 3.072 4.352l86.528 198.08 86.464-198.08a43.008 43.008 0 0 1 31.168-24.256z"  horiz-adv-x="1024" />

    
    <glyph glyph-name="xiajiantou" unicode="&#58999;" d="M976.64 416.64a48.576 48.576 0 0 1-68.736-0.896L560 67.904V814.72c0 27.2-21.44 49.28-48 49.28s-48-22.08-48-49.28v-746.816L116.096 415.808a48.768 48.768 0 0 1-68.864 0.896 48.768 48.768 0 0 1 1.024-68.736l428.608-428.672c0.384-0.384 0.512-1.024 0.896-1.344 9.344-9.472 21.824-14.08 34.24-13.952a47.232 47.232 0 0 1 34.112 13.888c0.512 0.384 0.64 1.024 1.024 1.344l428.608 428.672a48.576 48.576 0 0 1 0.896 68.736z"  horiz-adv-x="1024" />

    
    <glyph glyph-name="xuanze" unicode="&#59000;" d="M512.064 861.248L130.176 479.488h763.648zM512.064-93.248l381.76 381.824H130.176z"  horiz-adv-x="1024" />

    
    <glyph glyph-name="youjiantou" unicode="&#59001;" d="M769.216 384.064c0 3.712-1.152 7.232-1.856 10.88-0.64 2.368-0.64 4.8-1.408 7.04a50.56 50.56 0 0 1-11.136 17.344l-417.28 417.28a48.96 48.96 0 0 1-68.992 0.96 48.832 48.832 0 0 1 1.024-68.864L654.208 384l-384.64-384.768a48.768 48.768 0 0 1-1.024-68.8 48.768 48.768 0 0 1 68.864 0.96l417.28 417.344a51.2 51.2 0 0 1 11.136 17.344c0.896 2.304 0.896 4.736 1.472 7.04 0.768 3.648 1.92 7.232 1.92 10.944z"  horiz-adv-x="1024" />

    
    <glyph glyph-name="yincangxiangqing" unicode="&#59002;" d="M547.392 430.656a49.6 49.6 0 0 1-17.344 11.136c-2.24 0.896-4.672 0.896-7.04 1.472-3.712 0.832-7.168 1.984-10.944 1.984s-7.232-1.152-10.88-1.984c-2.368-0.576-4.8-0.576-7.04-1.472a49.92 49.92 0 0 1-17.472-11.136l-417.28-417.28a48.704 48.704 0 0 1-0.96-68.8 48.704 48.704 0 0 1 68.8 0.96L512 330.24l384.704-384.768a48.704 48.704 0 0 1 68.8-0.96 48.704 48.704 0 0 1-0.96 68.8L547.392 430.656zM127.296 337.472L512 722.176l384.768-384.704a48.64 48.64 0 0 1 68.736-1.024 48.64 48.64 0 0 1-1.024 68.8l-417.28 417.28a49.6 49.6 0 0 1-17.344 11.136c-2.112 1.024-4.544 1.024-6.976 1.536-3.648 0.832-7.104 1.984-10.88 1.984s-7.168-1.152-10.816-1.984c-2.368-0.576-4.8-0.576-7.04-1.472a49.344 49.344 0 0 1-17.472-11.072l-417.28-417.28a48.768 48.768 0 0 1-0.896-68.8 48.832 48.832 0 0 1 68.8 0.896z"  horiz-adv-x="1024" />

    
    <glyph glyph-name="zhankai" unicode="&#59003;" d="M565.824 384l384.704 384.64a48.704 48.704 0 0 1 1.024 68.8 48.704 48.704 0 0 1-68.8-0.96L465.344 419.264a49.92 49.92 0 0 1-11.136-17.408c-0.896-2.112-0.896-4.48-1.472-6.72-0.768-3.648-1.984-7.296-1.984-11.136s1.152-7.424 1.984-11.136c0.576-2.176 0.576-4.608 1.472-6.72a49.28 49.28 0 0 1 11.136-17.408l417.344-417.28a48.64 48.64 0 0 1 68.8-1.024 48.64 48.64 0 0 1-1.024 68.736L565.824 384zM173.76 384l384.704 384.64a48.704 48.704 0 0 1 1.024 68.8 48.64 48.64 0 0 1-68.864-0.896l-417.28-417.216a49.92 49.92 0 0 1-11.136-17.408c-0.896-2.112-0.896-4.48-1.408-6.784-0.832-3.648-2.048-7.296-2.048-11.136s1.216-7.424 2.048-11.072c0.576-2.24 0.576-4.608 1.408-6.784a49.28 49.28 0 0 1 11.136-17.408l417.28-417.216a48.64 48.64 0 0 1 68.864-1.088 48.704 48.704 0 0 1-0.96 68.8L173.76 384z"  horiz-adv-x="1024" />

    
    <glyph glyph-name="zhankaixiangqing" unicode="&#59004;" d="M476.672 337.344c5.12-5.12 11.072-8.704 17.344-11.136 2.24-0.96 4.672-0.96 7.04-1.408 3.648-0.896 7.168-1.92 10.88-1.92s7.232 1.152 10.88 1.92c2.368 0.576 4.8 0.576 7.04 1.408a48.192 48.192 0 0 1 17.344 11.136l417.344 417.344a48.704 48.704 0 0 1 0.96 68.8 48.704 48.704 0 0 1-68.8-0.96L512 437.824 127.296 822.528a48.768 48.768 0 0 1-68.8 0.896 48.704 48.704 0 0 1 0.96-68.8l417.216-417.28zM896.768 430.528L512 45.824 127.296 430.528a48.768 48.768 0 0 1-68.8 0.896 48.704 48.704 0 0 1 0.96-68.8l417.28-417.28c5.12-5.12 11.072-8.768 17.344-11.136 2.24-1.024 4.672-1.024 7.04-1.472 3.648-0.768 7.168-1.92 10.88-1.92s7.232 1.216 10.88 1.92c2.368 0.576 4.8 0.576 7.04 1.472a48.192 48.192 0 0 1 17.344 11.136l417.28 417.28a48.64 48.64 0 0 1 1.024 68.8 48.768 48.768 0 0 1-68.8-0.896z"  horiz-adv-x="1024" />

    
    <glyph glyph-name="zhankaixianshi" unicode="&#59005;" d="M749.632 418.112c-0.448 0.448-1.024 0.576-1.344 0.96L545.6 621.696a48.704 48.704 0 0 1-68.8 0.896 48.704 48.704 0 0 1 0.96-68.8l121.728-121.792H309.888c-27.2 0-49.28-21.504-49.28-48s22.08-48 49.28-48h289.664l-121.792-121.728a48.64 48.64 0 0 1-0.96-68.736 48.64 48.64 0 0 1 68.8 0.896l202.624 202.688c0.384 0.32 0.96 0.448 1.344 0.832a47.04 47.04 0 0 1 13.824 33.664 47.616 47.616 0 0 1-13.76 34.496zM512 864A479.936 479.936 0 0 1 32 384c0-265.152 214.848-480 480-480s480 214.848 480 480S777.152 864 512 864zM512 0A384 384 0 1 0 512 768a384 384 0 0 0 0-768z"  horiz-adv-x="1024" />

    
    <glyph glyph-name="zuojiantou" unicode="&#59006;" d="M369.728 384l384.768 384.704a48.64 48.64 0 0 1 0.896 68.8 48.64 48.64 0 0 1-68.736-0.96L269.44 419.264a48.704 48.704 0 0 1-11.136-17.344c-1.024-2.304-1.024-4.736-1.472-7.04-0.896-3.648-2.048-7.168-2.048-10.88 0-3.712 1.152-7.232 1.984-10.88 0.512-2.368 0.512-4.8 1.472-7.04a48.704 48.704 0 0 1 11.136-17.344l417.216-417.28a48.576 48.576 0 0 1 68.736-0.96 48.576 48.576 0 0 1-0.896 68.736L369.728 384z"  horiz-adv-x="1024" />

    


  </font>
</defs>
</svg>
